<svg width="16" height="16" xmlns="http://www.w3.org/2000/svg">

 <g>
  <title>background</title>
  <rect fill="none" id="canvas_background" height="402" width="582" y="-1" x="-1"/>
 </g>
 <g>
  <title>Layer 1</title>
  <path fill="#d38801" id="svg_1" d="m14,4c1.105,0 2,-0.895 2,-2c0,-1.105 -0.895,-2 -2,-2s-2,0.895 -2,2c0,0.144 0.017,0.283 0.045,0.418l-8.544,4.273c-0.367,-0.42 -0.9,-0.691 -1.501,-0.691c-1.105,0 -2,0.895 -2,2c0,1.105 0.895,2 2,2c0.601,0 1.134,-0.271 1.501,-0.691l8.545,4.272c-0.029,0.136 -0.046,0.275 -0.046,0.419c0,1.105 0.895,2 2,2s2,-0.895 2,-2c0,-1.105 -0.895,-2 -2,-2c-0.601,0 -1.134,0.271 -1.501,0.691l-8.544,-4.273c0.028,-0.135 0.045,-0.274 0.045,-0.418c0,-0.144 -0.017,-0.283 -0.045,-0.418l8.545,-4.272c0.366,0.419 0.899,0.69 1.5,0.69z"/>
 </g>
</svg>